<?xml version="1.0" encoding="UTF-8"?>
<svg id="Calque_2" data-name="Calque 2" xmlns="http://www.w3.org/2000/svg" viewBox="0 0 245.49 252.42">
  <defs>
    <style>
      .cls-1 {
        fill: #fff;
        stroke-width: 0px;
      }
    </style>
  </defs>
  <g id="Calque_1-2" data-name="Calque 1">
    <path class="cls-1" d="M209.82,15.24c0,8.42-11.47,41.19-15.24,41.19-4.98,0-15.24-32.77-15.24-41.19S186.16,0,194.58,0s15.24,6.82,15.24,15.24Z"/>
    <path class="cls-1" d="M166.53,22.64c7.29,4.21,29.94,30.53,28.05,33.79-2.49,4.31-36-3.19-43.29-7.4-7.29-4.21-9.79-13.53-5.58-20.82s13.53-9.79,20.82-5.58Z"/>
    <path class="cls-1" d="M151.29,63.83c7.29-4.21,41.4-10.66,43.29-7.4,2.49,4.31-20.76,29.58-28.05,33.79s-16.61,1.71-20.82-5.58-1.71-16.61,5.58-20.82Z"/>
    <path class="cls-1" d="M179.34,97.62c0-8.42,11.47-41.19,15.24-41.19,4.98,0,15.24,32.77,15.24,41.19s-6.82,15.24-15.24,15.24-15.24-6.82-15.24-15.24Z"/>
    <path class="cls-1" d="M222.63,90.22c-7.29-4.21-29.94-30.53-28.05-33.79,2.49-4.31,36,3.19,43.29,7.4,7.29,4.21,9.79,13.53,5.58,20.82s-13.53,9.79-20.82,5.58Z"/>
    <path class="cls-1" d="M237.87,49.03c-7.29,4.21-41.4,10.66-43.29,7.4-2.49-4.31,20.76-29.58,28.05-33.79s16.61-1.71,20.82,5.58,1.71,16.61-5.58,20.82Z"/>
  </g>
  <g id="Calque_2-2" data-name="Calque 2">
    <path class="cls-1" d="M74.83,252.42c-15.53,0-28.16-12.63-28.16-28.16,0-1.84.27-4,.72-6.3-1.92,1.62-3.67,2.9-5.15,3.75-13.46,7.76-30.72,3.13-38.47-10.31-7.76-13.45-3.13-30.7,10.31-38.47,1.6-.92,3.6-1.76,5.83-2.53-2.37-.86-4.35-1.73-5.83-2.58-13.45-7.77-18.07-25.03-10.31-38.47,3.76-6.52,9.84-11.18,17.1-13.12,7.27-1.95,14.86-.95,21.37,2.81,1.59.92,3.33,2.24,5.11,3.78-.44-2.48-.68-4.63-.68-6.34,0-15.53,12.63-28.16,28.16-28.16s28.16,12.63,28.16,28.16c0,1.84-.27,4-.72,6.3,1.92-1.62,3.67-2.9,5.15-3.75,6.52-3.76,14.11-4.76,21.38-2.81,7.27,1.95,13.34,6.61,17.1,13.12,7.76,13.45,3.13,30.7-10.31,38.47-1.6.92-3.6,1.76-5.83,2.53,2.37.86,4.35,1.73,5.83,2.58h0c6.52,3.76,11.18,9.84,13.12,17.1,1.95,7.27.95,14.86-2.81,21.37-7.77,13.45-25.03,18.07-38.47,10.31-1.59-.92-3.33-2.24-5.11-3.78.44,2.48.68,4.63.68,6.34,0,15.53-12.63,28.16-28.16,28.16ZM58.21,194.67c.87,0,1.75.23,2.54.69,2.1,1.24,3,3.81,2.13,6.09-3.83,10.04-6.21,18.77-6.21,22.81,0,10.01,8.15,18.16,18.16,18.16s18.16-8.15,18.16-18.16c0-4.26-2.28-13.35-5.81-23.16-.82-2.29.12-4.85,2.25-6.05,2.12-1.2,4.8-.69,6.34,1.2,6.77,8.33,13.15,14.76,16.65,16.78,8.67,5.01,19.8,2.02,24.81-6.65,2.43-4.2,3.07-9.09,1.81-13.78-1.26-4.68-4.26-8.6-8.47-11.03,0,0,0,0,0,0-3.68-2.13-12.69-4.7-22.96-6.55-2.4-.43-4.14-2.53-4.11-4.97.02-2.44,1.8-4.5,4.21-4.89,10.58-1.69,19.35-4,22.87-6.03,8.66-5,11.65-16.13,6.64-24.81-5-8.67-16.13-11.65-24.81-6.65-3.7,2.14-10.43,8.66-17.15,16.61-1.57,1.86-4.26,2.32-6.36,1.08-2.1-1.24-3-3.81-2.13-6.09,3.83-10.04,6.21-18.77,6.21-22.81,0-10.01-8.15-18.16-18.16-18.16s-18.16,8.15-18.16,18.16c0,4.26,2.28,13.35,5.81,23.16.82,2.29-.13,4.85-2.25,6.05-2.12,1.2-4.8.69-6.34-1.2-6.77-8.33-13.15-14.76-16.65-16.78-4.2-2.43-9.1-3.07-13.78-1.82-4.69,1.26-8.6,4.26-11.03,8.47-5.01,8.67-2.02,19.8,6.65,24.81,3.68,2.12,12.69,4.7,22.96,6.55,2.4.43,4.14,2.53,4.11,4.97-.02,2.44-1.8,4.5-4.21,4.89-10.58,1.69-19.35,4-22.87,6.03-8.66,5-11.64,16.13-6.64,24.81,5,8.67,16.13,11.65,24.81,6.65,3.7-2.14,10.43-8.66,17.15-16.61.98-1.16,2.39-1.77,3.82-1.77Z"/>
  </g>
</svg>