<?xml version="1.0" encoding="UTF-8"?>
<svg id="Calque_2" data-name="Calque 2" xmlns="http://www.w3.org/2000/svg" viewBox="0 0 154.75 171.52">
  <defs>
    <style>
      .cls-1 {
        fill: #fff;
        stroke-width: 0px;
      }
    </style>
  </defs>
  <g id="Calque_1-2" data-name="Calque 1">
    <path class="cls-1" d="M100.53,23.16c0,12.79-17.43,62.6-23.16,62.6-7.57,0-23.16-49.81-23.16-62.6,0-12.79,10.37-23.16,23.16-23.16,12.79,0,23.16,10.37,23.16,23.16Z"/>
    <path class="cls-1" d="M34.74,34.4c11.08,6.4,45.5,46.39,42.63,51.36-3.78,6.55-54.71-4.85-65.79-11.24C.51,68.12-3.29,53.96,3.11,42.88s20.56-14.87,31.64-8.48Z"/>
    <path class="cls-1" d="M11.58,97c11.08-6.4,62.93-16.21,65.79-11.24,3.78,6.55-31.56,44.96-42.63,51.36-11.08,6.4-25.24,2.6-31.64-8.48s-2.6-25.24,8.48-31.64Z"/>
    <path class="cls-1" d="M54.22,148.36c0-12.79,17.43-62.6,23.16-62.6,7.57,0,23.16,49.81,23.16,62.6,0,12.79-10.37,23.16-23.16,23.16-12.79,0-23.16-10.37-23.16-23.16Z"/>
    <path class="cls-1" d="M120.01,137.11c-11.08-6.4-45.5-46.39-42.63-51.36,3.78-6.55,54.71,4.85,65.79,11.24,11.08,6.4,14.87,20.56,8.48,31.64s-20.56,14.87-31.64,8.48Z"/>
    <path class="cls-1" d="M143.17,74.52c-11.08,6.4-62.93,16.21-65.79,11.24-3.78-6.55,31.56-44.96,42.63-51.36,11.08-6.4,25.24-2.6,31.64,8.48s2.6,25.24-8.48,31.64Z"/>
  </g>
</svg>