<?xml version="1.0" encoding="UTF-8"?>
<svg id="Calque_2" data-name="Calque 2" xmlns="http://www.w3.org/2000/svg" viewBox="0 0 241.5 240.42">
  <defs>
    <style>
      .cls-1 {
        fill: #fff;
        stroke-width: 0px;
      }
    </style>
  </defs>
  <g id="Calque_1-2" data-name="Calque 1">
    <path class="cls-1" d="M205.83,15.24c0,8.42-11.47,41.19-15.24,41.19-4.98,0-15.24-32.77-15.24-41.19S182.17,0,190.59,0s15.24,6.82,15.24,15.24Z"/>
    <path class="cls-1" d="M162.54,22.64c7.29,4.21,29.94,30.53,28.05,33.79-2.49,4.31-36-3.19-43.29-7.4-7.29-4.21-9.79-13.53-5.58-20.82s13.53-9.79,20.82-5.58Z"/>
    <path class="cls-1" d="M147.3,63.83c7.29-4.21,41.4-10.66,43.29-7.4,2.49,4.31-20.76,29.58-28.05,33.79s-16.61,1.71-20.82-5.58-1.71-16.61,5.58-20.82Z"/>
    <path class="cls-1" d="M175.35,97.62c0-8.42,11.47-41.19,15.24-41.19,4.98,0,15.24,32.77,15.24,41.19s-6.82,15.24-15.24,15.24-15.24-6.82-15.24-15.24Z"/>
    <path class="cls-1" d="M218.64,90.22c-7.29-4.21-29.94-30.53-28.05-33.79,2.49-4.31,36,3.19,43.29,7.4,7.29,4.21,9.79,13.53,5.58,20.82s-13.53,9.79-20.82,5.58Z"/>
    <path class="cls-1" d="M233.88,49.03c-7.29,4.21-41.4,10.66-43.29,7.4-2.49-4.31,20.76-29.58,28.05-33.79s16.61-1.71,20.82,5.58,1.71,16.61-5.58,20.82Z"/>
  </g>
  <g id="Calque_2-2" data-name="Calque 2">
    <path class="cls-1" d="M128.09,170.25c-4.48-2.59-14.26-5.28-24.57-7.14,10.32-1.65,20.12-4.07,24.57-6.63,11.08-6.4,14.87-20.56,8.48-31.64s-20.56-14.87-31.64-8.48c-4.48,2.59-11.71,9.71-18.47,17.71,3.73-9.77,6.54-19.46,6.54-24.59,0-12.79-10.37-23.16-23.16-23.16s-23.16,10.37-23.16,23.16c0,5.18,2.56,15,6.1,24.85-6.59-8.11-13.58-15.39-18.03-17.96-11.08-6.4-25.24-2.6-31.64,8.48-6.4,11.08-2.6,25.24,8.48,31.64,4.48,2.59,14.26,5.28,24.57,7.14-10.32,1.65-20.12,4.07-24.57,6.63-11.08,6.4-14.87,20.56-8.48,31.64s20.56,14.87,31.64,8.48c4.48-2.59,11.71-9.71,18.47-17.71-3.73,9.77-6.54,19.46-6.54,24.59,0,12.79,10.37,23.16,23.16,23.16s23.16-10.37,23.16-23.16c0-5.18-2.56-15-6.1-24.85,6.59,8.11,13.58,15.39,18.03,17.96,11.08,6.4,25.24,2.6,31.64-8.48s2.6-25.24-8.48-31.64h0Z"/>
  </g>
</svg>