<?xml version="1.0" encoding="UTF-8"?>
<svg id="Calque_2" data-name="Calque 2" xmlns="http://www.w3.org/2000/svg" viewBox="0 0 128.32 11.61">
  <defs>
    <style>
      .cls-1 {
        fill: #a3baa6;
        stroke-width: 0px;
      }
    </style>
  </defs>
  <g id="Calque_1-2" data-name="Calque 1">
    <path class="cls-1" d="M90.19,11.61c-2.87,0-5.38-1.74-7.69-3.33-2.49-1.72-5.07-3.5-8.42-3.76-2.65-.19-4.49,1.15-6.62,2.72-3.9,2.87-8.75,6.45-18.41-.81-3.21-2.41-5.11-1.37-8.75,1.01-3.98,2.6-9.44,6.17-17.41.08-4.34-3.31-7.75-2.17-13.91.3-1.91.77-3.88,1.56-6.08,2.22-1.19.36-2.45-.31-2.8-1.5s.31-2.45,1.5-2.8c2.01-.61,3.89-1.36,5.71-2.09,6.04-2.43,11.75-4.72,18.32.3,5.45,4.16,8.43,2.2,12.21-.27,3.58-2.34,8.04-5.25,13.91-.84,6.99,5.24,9.39,3.47,13.04.78,2.37-1.74,5.31-3.92,9.62-3.58,4.56.34,7.93,2.67,10.63,4.54,3.78,2.61,5.2,3.3,7.56,1.52.11-.08,11.33-8.43,19.25-3.69,6.67,3.99,7.52,4.5,13.47,2.44,1.18-.41,2.46.22,2.86,1.39s-.22,2.46-1.39,2.86c-7.94,2.74-10.27,1.34-17.2-2.8-4.55-2.72-12.42,1.98-14.28,3.38-1.84,1.39-3.54,1.93-5.14,1.93Z"/>
  </g>
</svg>