<?xml version="1.0" encoding="UTF-8"?>
<svg id="Calque_2" data-name="Calque 2" xmlns="http://www.w3.org/2000/svg" viewBox="0 0 139.66 154.09">
  <defs>
    <style>
      .cls-1 {
        fill: #fff;
        stroke-width: 0px;
      }
    </style>
  </defs>
  <g id="Calque_1-2" data-name="Calque 1">
    <path class="cls-1" d="M128.07,83.93c-4.48-2.59-14.26-5.28-24.57-7.14,10.32-1.65,20.12-4.07,24.57-6.63,11.08-6.4,14.87-20.56,8.48-31.64s-20.56-14.87-31.64-8.48c-4.48,2.59-11.71,9.71-18.47,17.71,3.73-9.77,6.54-19.46,6.54-24.59,0-12.79-10.37-23.16-23.16-23.16s-23.16,10.37-23.16,23.16c0,5.18,2.56,15,6.1,24.85-6.59-8.11-13.58-15.39-18.03-17.96-11.08-6.4-25.24-2.6-31.64,8.48-6.4,11.08-2.6,25.24,8.48,31.64,4.48,2.59,14.26,5.28,24.57,7.14-10.32,1.65-20.12,4.07-24.57,6.63-11.08,6.4-14.87,20.56-8.48,31.64s20.56,14.87,31.64,8.48c4.48-2.59,11.71-9.71,18.47-17.71-3.73,9.77-6.54,19.46-6.54,24.59,0,12.79,10.37,23.16,23.16,23.16s23.16-10.37,23.16-23.16c0-5.18-2.56-15-6.1-24.85,6.59,8.11,13.58,15.39,18.03,17.96,11.08,6.4,25.24,2.6,31.64-8.48s2.6-25.24-8.48-31.64Z"/>
  </g>
</svg>