<?xml version="1.0" encoding="utf-8"?>
<!-- Generator: Adobe Illustrator 28.3.0, SVG Export Plug-In . SVG Version: 6.00 Build 0)  -->
<svg version="1.1" id="svg5" xmlns:svg="http://www.w3.org/2000/svg"
	 xmlns="http://www.w3.org/2000/svg" xmlns:xlink="http://www.w3.org/1999/xlink" x="0px" y="0px" viewBox="0 0 2173.9 273.3"
	 style="enable-background:new 0 0 2173.9 273.3;" xml:space="preserve">
<style type="text/css">
	.st0{fill:#F99300;}
	.st1{fill:#A3BAA6;}
	.st2{fill:#F7EDE0;}
	.st3{fill:#F49E5D;}
	.st4{fill:#F0A77C;}
</style>
<g id="layer1" transform="translate(313.49344,-179.31976)">
	<path id="path15484" class="st0" d="M1505.8,179.3c-9.5,6.4-18.3,13.1-27.7,19.5c-26.9,18.3-56.3,35.2-63.4,37.5
		c-25.6,8-76.4,15.7-123.2,17c-66.8,1.8-149.7-6.7-239.3,11.5c-92,18.7-165.5,59.2-215.9,82.4c-49.7,22.9-88.7,54.4-175.5,58
		c-41,1.7-111.5-7.4-177-19.7c-65.5-12.2-122.2-26.3-169.5-32c-93.1-11.4-197.9-13.7-280-8.3c-81.7,5.4-182.8,26.3-260.3,59.4
		c-29.1,12.5-53.4,28.8-75,43.8c-4.3,3-8.5,6-12.5,8.9H-161c3.3-1.8,6.4-3.3,8.9-4.3c54.7-23.4,148.6-42.6,200.9-46.1
		c64.7-4.3,162.4-2.2,239.1,7.2c19.5,2.4,86.2,16.9,156.8,30.1c25,4.7,50.9,9.2,77.3,13.1h229.8c92.2-18.6,147.4-56.7,161.6-63.2
		c55.5-25.6,126.7-60.3,180.8-71.2c51.9-10.5,118.9-5.2,203.2-7.4c63.9-1.7,126.9-9.8,177.1-25.6c44.6-14,69.8-34.7,96.4-52.8
		c26.6-18.1,57.6-33.1,54.5-32.3c50.8-12.3,154.3-18.1,233.7-25.3H1505.8z"/>
	<path id="path15482" class="st1" d="M1699.3,179.3c-28,6.5-54.8,14.5-78.8,24.3c-48,19.6-73.2,41-89.9,55.3
		c-16.7,14.2-22.2,19.1-39.6,23.7c-40.9,10.8-101.1,13-167.2,12.9c-66.1-0.1-136.3-3-203.7,10.1c-59.5,11.6-102,30.1-137.2,48.3
		c-35.2,18.2-64.5,35.9-103.7,52.4c-15.2,6.3-126.4,42.6-238.6,43.7c-51.5,0.5-133-7.6-203.7-17c-70.8-9.4-124.6-18.9-157.6-22.4
		C189,400.8,95.1,394.3-36,409.1c-49.8,5.6-95,17.3-132.4,30.3c-17.1,5.9-32.2,11.7-45.7,17.9H946.6c1.9-0.7,3.8-1.5,5.4-2.2
		c49-20.5,82.6-41,113-56.7c30.4-15.7,56.2-26.7,95.7-34.4c32.4-6.3,93.8-6.4,162.8-6.3c69,0.1,147.3-0.2,220.1-19.5
		c45.7-12.1,69.8-32,86.8-46.4c17-14.5,29.7-25.7,61.9-38.9c35.8-14.6,112.9-27.7,173-33.7l0.2-39.8L1699.3,179.3z"/>
	<path id="path59174" class="st2" d="M1841.3,202.7c-4.8,0-9.6,0-14.5,0.1c-46.7,0.8-95.8,6.2-145.8,20.9
		c-58.1,17.1-81.3,31.3-112.5,54.2c-38.7,28.5-17.1,34.3-83,53.3c-33.3,9.6-91.6,14.8-155,18.3c-63.4,3.6-130.7,5.5-191.9,18.8
		c-67.8,14.8-118.7,44.7-166.7,69.7c-13.3,6.9-26,13.4-37.9,19.2h170.5c31.4-15.1,60.3-27.3,78.8-31.3
		c33.3-7.2,94.2-10.8,159.6-14.5c65.3-3.7,136.1-7.5,198.8-25.6c92.8-26.7,109-61.9,122.2-71.6c31.8-23.4,23-21.1,74.3-36.2
		c41.5-12.2,82.5-13.9,127-11.8l0.2-63.1C1857.4,202.9,1849.4,202.7,1841.3,202.7L1841.3,202.7z"/>
	<path id="path3544" class="st3" d="M1817.9,247.1c-35.3,0.3-71.4,4.6-107,17c-52.5,18.3-76.7,48.5-87.9,67.2
		c-11.2,18.8-11.1,23.4-30.7,31.6c-45.9,19.1-87.8,23.9-172.1,26.8c-61.6,2.1-134.4,3.5-214.9,24.3c-34.4,8.9-69.5,24.1-105.9,43.2
		h377.4c64.7-4.2,118.2-13,170.1-34.6c46.3-19.2,63.2-49.1,72.8-65.2c9.6-16,10-20.9,39-31c25.3-8.8,61.7-8.1,106.3-4.9l0.3-72.8
		C1849.7,247.7,1833.8,247,1817.9,247.1L1817.9,247.1z"/>
	<path id="path59214" class="st4" d="M1848.4,311.2c-3.8,0-7.7,0-11.5,0.1c-20.7,0.5-42.4,2.7-65.3,7.6
		c-55.8,11.9-81.4,43.4-97,62.1c-15.6,18.7-22.3,28-53.7,36c-24.8,6.3-73.4,7.6-122.7,8c-49.2,0.3-99.5-3.8-147.7,18.9
		c-8.6,4-16.8,8.5-24.8,13.3h392.6c22.5-14.1,37.2-29.9,47.1-41.8c16.9-20.3,19.4-25.8,37.5-29.6c20.5-4.4,40.3-4.6,61.9-2.9
		l0.3-71.2C1859.5,311.4,1854,311.2,1848.4,311.2L1848.4,311.2z"/>
	<path id="path374" class="st4" d="M1864.4,456.9h-424.3c-1.1,0.1-2.1,0.2-3.2,0.3h427.4L1864.4,456.9z"/>
	<path id="path372" class="st4" d="M1864.8,372.3c-1.5,0.1-2.9,0.1-4.4,0.2c-25,1.3-51.4,5.8-76.2,15.5
		c-47.8,18.7-73.5,35.8-87.1,43.5c-13.6,7.7-15.4,9.6-52.1,16c-26.4,4.6-76.2,5.5-126.4,6.6c-25.8,0.6-51.9,0.1-78.4,2.8h424.3
		L1864.8,372.3z"/>
</g>
</svg>
