<?xml version="1.0" encoding="UTF-8"?>
<svg id="Calque_2" data-name="Calque 2" xmlns="http://www.w3.org/2000/svg" viewBox="0 0 92.58 60.69">
  <defs>
    <style>
      .cls-1 {
        fill: #fff;
        stroke-width: 0px;
      }
    </style>
  </defs>
  <g id="Calque_1-2" data-name="Calque 1">
    <path class="cls-1" d="M6.85,30c-1.71,0-3.21-1.25-3.46-3L.04,4.01C-.24,2.09,1.08.32,2.99.04c1.92-.28,3.69,1.04,3.97,2.96l3.36,23c.28,1.91-1.04,3.69-2.96,3.97-.17.02-.34.04-.51.04Z"/>
    <path class="cls-1" d="M42.93,36.98c-.67,0-1.34-.19-1.93-.59-1.61-1.07-2.05-3.24-.98-4.85L57.13,5.8c1.07-1.61,3.25-2.05,4.85-.98,1.61,1.07,2.05,3.24.98,4.85l-17.11,25.74c-.67,1.01-1.79,1.56-2.92,1.56Z"/>
    <path class="cls-1" d="M65.19,60.69c-1.59,0-3.02-1.09-3.4-2.7-.44-1.88.72-3.77,2.61-4.21l23.88-5.62c1.88-.44,3.77.72,4.21,2.61.44,1.88-.72,3.77-2.61,4.21l-23.88,5.62c-.27.06-.54.09-.8.09Z"/>
  </g>
</svg>